<svg width="40" height="40" viewBox="0 0 40 40" fill="none" xmlns="http://www.w3.org/2000/svg">
<circle cx="20" cy="20" r="20" fill="#55A3D9"/>
<g clip-path="url(#clip0_1_15)">
<path d="M27.9954 18.3796C26.423 18.3834 24.8893 17.9007 23.6107 16.9998V23.2829C23.6103 24.4466 23.249 25.5824 22.575 26.5385C21.9011 27.4946 20.9467 28.2254 19.8395 28.6332C18.7323 29.0409 17.525 29.1062 16.379 28.8203C15.2331 28.5344 14.2031 27.9109 13.4269 27.0332C12.6506 26.1555 12.1651 25.0655 12.0352 23.9088C11.9053 22.7522 12.1372 21.584 12.6999 20.5606C13.2626 19.5372 14.1293 18.7073 15.1841 18.1818C16.2389 17.6564 17.4315 17.4605 18.6025 17.6203V20.7805C18.0667 20.6146 17.4913 20.6196 16.9585 20.7947C16.4257 20.9699 15.9628 21.3064 15.6358 21.756C15.3089 22.2056 15.1346 22.7455 15.1379 23.2984C15.1412 23.8513 15.3219 24.3891 15.6542 24.8349C15.9866 25.2807 16.4535 25.6118 16.9883 25.7808C17.5232 25.9498 18.0986 25.9481 18.6324 25.776C19.1662 25.6039 19.6311 25.2701 19.9608 24.8224C20.2904 24.3747 20.4679 23.8358 20.4679 23.2829V11H23.6107C23.6085 11.2613 23.6308 11.5222 23.6771 11.7794C23.7864 12.3537 24.0134 12.9 24.3445 13.3849C24.6755 13.8698 25.1036 14.2832 25.6025 14.5996C26.3123 15.0616 27.1445 15.3079 27.9954 15.3077V18.3796Z" fill="white"/>
</g>
<defs>
<clipPath id="clip0_1_15">
<rect width="16" height="18" fill="white" transform="translate(12 11)"/>
</clipPath>
</defs>
</svg>
