<svg xmlns="http://www.w3.org/2000/svg" xmlns:xlink="http://www.w3.org/1999/xlink" width="40" zoomAndPan="magnify" viewBox="0 0 30 30.000001" height="40" preserveAspectRatio="xMidYMid meet" version="1.0"><defs><clipPath id="id1"><path d="M 10 5.574219 L 27.289062 5.574219 L 27.289062 23.71875 L 10 23.71875 Z M 10 5.574219 " clip-rule="nonzero"/></clipPath><clipPath id="id2"><path d="M 2.609375 5.574219 L 14 5.574219 L 14 23.71875 L 2.609375 23.71875 Z M 2.609375 5.574219 " clip-rule="nonzero"/></clipPath></defs><g clip-path="url(#id1)"><path fill="rgb(55.288696%, 10.5896%, 23.919678%)" d="M 24.542969 5.574219 L 10.152344 5.574219 L 10.152344 23.71875 L 24.542969 23.71875 C 26.054688 23.71875 27.28125 22.46875 27.28125 20.925781 L 27.28125 8.363281 C 27.28125 6.824219 26.054688 5.574219 24.542969 5.574219 Z M 24.542969 5.574219 " fill-opacity="1" fill-rule="nonzero"/></g><g clip-path="url(#id2)"><path fill="rgb(93.328857%, 93.328857%, 93.328857%)" d="M 10.152344 21.703125 L 13.78125 20.695312 L 10.152344 19.683594 L 13.78125 18.675781 L 10.152344 17.667969 L 13.78125 16.660156 L 10.152344 15.652344 L 13.78125 14.644531 L 10.152344 13.636719 L 13.78125 12.628906 L 10.152344 11.621094 L 13.78125 10.613281 L 10.152344 9.605469 L 13.78125 8.597656 L 10.152344 7.589844 L 13.78125 6.582031 L 10.152344 5.574219 L 5.355469 5.574219 C 3.84375 5.574219 2.613281 6.824219 2.613281 8.363281 L 2.613281 20.925781 C 2.613281 22.46875 3.84375 23.71875 5.355469 23.71875 L 10.152344 23.71875 L 13.78125 22.710938 Z M 10.152344 21.703125 " fill-opacity="1" fill-rule="nonzero"/></g></svg>